<mxfile host="65bd71144e">
    <diagram id="GwXKaQyKeeMA_JkWAQsi" name="Page-1">
        <mxGraphModel dx="1785" dy="2639" grid="1" gridSize="10" guides="1" tooltips="1" connect="1" arrows="1" fold="1" page="1" pageScale="1" pageWidth="1200" pageHeight="1920" math="0" shadow="0">
            <root>
                <mxCell id="0"/>
                <mxCell id="1" parent="0"/>
                <mxCell id="-R_R7R8B03H3mzK-gPOs-9" value="CameraApp" style="swimlane;fontStyle=0;childLayout=stackLayout;horizontal=1;startSize=20;horizontalStack=0;resizeParent=1;resizeParentMax=0;resizeLast=0;collapsible=1;marginBottom=0;whiteSpace=wrap;html=1;" parent="1" vertex="1">
                    <mxGeometry x="980" y="80" width="140" height="50" as="geometry"/>
                </mxCell>
                <mxCell id="-R_R7R8B03H3mzK-gPOs-17" value="Camera" style="swimlane;fontStyle=0;childLayout=stackLayout;horizontal=1;startSize=30;horizontalStack=0;resizeParent=1;resizeParentMax=0;resizeLast=0;collapsible=1;marginBottom=0;whiteSpace=wrap;html=1;" parent="1" vertex="1">
                    <mxGeometry x="1070" y="220" width="140" height="60" as="geometry"/>
                </mxCell>
                <mxCell id="-R_R7R8B03H3mzK-gPOs-35" value="AsymmetricKey" style="swimlane;fontStyle=0;childLayout=stackLayout;horizontal=1;startSize=26;fillColor=none;horizontalStack=0;resizeParent=1;resizeParentMax=0;resizeLast=0;collapsible=1;marginBottom=0;" parent="1" vertex="1">
                    <mxGeometry x="720" y="530" width="140" height="52" as="geometry"/>
                </mxCell>
                <mxCell id="-R_R7R8B03H3mzK-gPOs-39" value="SymmetricKey" style="swimlane;fontStyle=0;childLayout=stackLayout;horizontal=1;startSize=26;fillColor=none;horizontalStack=0;resizeParent=1;resizeParentMax=0;resizeLast=0;collapsible=1;marginBottom=0;" parent="1" vertex="1">
                    <mxGeometry x="900" y="530" width="140" height="52" as="geometry"/>
                </mxCell>
                <mxCell id="-R_R7R8B03H3mzK-gPOs-43" value="KeyStoreHandler" style="swimlane;fontStyle=0;childLayout=stackLayout;horizontal=1;startSize=26;fillColor=none;horizontalStack=0;resizeParent=1;resizeParentMax=0;resizeLast=0;collapsible=1;marginBottom=0;" parent="1" vertex="1">
                    <mxGeometry x="900" y="192" width="140" height="104" as="geometry"/>
                </mxCell>
                <mxCell id="-R_R7R8B03H3mzK-gPOs-44" value="+ field: type" style="text;strokeColor=none;fillColor=none;align=left;verticalAlign=top;spacingLeft=4;spacingRight=4;overflow=hidden;rotatable=0;points=[[0,0.5],[1,0.5]];portConstraint=eastwest;" parent="-R_R7R8B03H3mzK-gPOs-43" vertex="1">
                    <mxGeometry y="26" width="140" height="26" as="geometry"/>
                </mxCell>
                <mxCell id="-R_R7R8B03H3mzK-gPOs-45" value="+ field: type" style="text;strokeColor=none;fillColor=none;align=left;verticalAlign=top;spacingLeft=4;spacingRight=4;overflow=hidden;rotatable=0;points=[[0,0.5],[1,0.5]];portConstraint=eastwest;" parent="-R_R7R8B03H3mzK-gPOs-43" vertex="1">
                    <mxGeometry y="52" width="140" height="26" as="geometry"/>
                </mxCell>
                <mxCell id="-R_R7R8B03H3mzK-gPOs-46" value="+ field: type" style="text;strokeColor=none;fillColor=none;align=left;verticalAlign=top;spacingLeft=4;spacingRight=4;overflow=hidden;rotatable=0;points=[[0,0.5],[1,0.5]];portConstraint=eastwest;" parent="-R_R7R8B03H3mzK-gPOs-43" vertex="1">
                    <mxGeometry y="78" width="140" height="26" as="geometry"/>
                </mxCell>
                <mxCell id="-R_R7R8B03H3mzK-gPOs-47" value="" style="endArrow=open;endFill=1;endSize=12;html=1;rounded=0;exitX=0.5;exitY=1;exitDx=0;exitDy=0;" parent="1" source="-R_R7R8B03H3mzK-gPOs-43" target="-R_R7R8B03H3mzK-gPOs-35" edge="1">
                    <mxGeometry width="160" relative="1" as="geometry">
                        <mxPoint x="340" y="490" as="sourcePoint"/>
                        <mxPoint x="500" y="490" as="targetPoint"/>
                        <Array as="points">
                            <mxPoint x="970" y="360"/>
                            <mxPoint x="790" y="360"/>
                        </Array>
                    </mxGeometry>
                </mxCell>
                <mxCell id="-R_R7R8B03H3mzK-gPOs-49" value="" style="endArrow=open;endFill=1;endSize=12;html=1;rounded=0;entryX=0.5;entryY=0;entryDx=0;entryDy=0;exitX=0.5;exitY=1;exitDx=0;exitDy=0;" parent="1" source="-R_R7R8B03H3mzK-gPOs-43" target="-R_R7R8B03H3mzK-gPOs-39" edge="1">
                    <mxGeometry width="160" relative="1" as="geometry">
                        <mxPoint x="440" y="410" as="sourcePoint"/>
                        <mxPoint x="600" y="410" as="targetPoint"/>
                    </mxGeometry>
                </mxCell>
                <mxCell id="-R_R7R8B03H3mzK-gPOs-50" value="" style="endArrow=open;endFill=1;endSize=12;html=1;rounded=0;exitX=0.5;exitY=1;exitDx=0;exitDy=0;entryX=0.5;entryY=0;entryDx=0;entryDy=0;" parent="1" source="-R_R7R8B03H3mzK-gPOs-9" target="-R_R7R8B03H3mzK-gPOs-17" edge="1">
                    <mxGeometry width="160" relative="1" as="geometry">
                        <mxPoint x="810.98" y="322.0100000000002" as="sourcePoint"/>
                        <mxPoint x="500" y="490" as="targetPoint"/>
                        <Array as="points">
                            <mxPoint x="1050" y="170"/>
                            <mxPoint x="1140" y="170"/>
                        </Array>
                    </mxGeometry>
                </mxCell>
                <mxCell id="-R_R7R8B03H3mzK-gPOs-82" value="TilesFx" style="swimlane;fontStyle=0;childLayout=stackLayout;horizontal=1;startSize=26;horizontalStack=0;resizeParent=1;resizeParentMax=0;resizeLast=0;collapsible=1;marginBottom=0;align=center;fontSize=14;" parent="1" vertex="1">
                    <mxGeometry x="1060" y="10" width="160" height="56" as="geometry"/>
                </mxCell>
                <mxCell id="-R_R7R8B03H3mzK-gPOs-98" style="edgeStyle=orthogonalEdgeStyle;rounded=0;orthogonalLoop=1;jettySize=auto;html=1;entryX=0.5;entryY=0;entryDx=0;entryDy=0;" parent="1" source="-R_R7R8B03H3mzK-gPOs-94" target="10" edge="1">
                    <mxGeometry relative="1" as="geometry">
                        <mxPoint x="340" y="-110" as="targetPoint"/>
                    </mxGeometry>
                </mxCell>
                <mxCell id="-R_R7R8B03H3mzK-gPOs-94" value="ConsoleApp" style="swimlane;fontStyle=0;childLayout=stackLayout;horizontal=1;startSize=26;horizontalStack=0;resizeParent=1;resizeParentMax=0;resizeLast=0;collapsible=1;marginBottom=0;align=center;fontSize=14;" parent="1" vertex="1">
                    <mxGeometry x="293.75" y="-770" width="300" height="346" as="geometry"/>
                </mxCell>
                <mxCell id="52" value="- con : Console" style="text;strokeColor=none;fillColor=none;spacingLeft=4;spacingRight=4;overflow=hidden;rotatable=0;points=[[0,0.5],[1,0.5]];portConstraint=eastwest;fontSize=12;" vertex="1" parent="-R_R7R8B03H3mzK-gPOs-94">
                    <mxGeometry y="26" width="300" height="20" as="geometry"/>
                </mxCell>
                <mxCell id="54" value="- instance : LogicHandler" style="text;strokeColor=none;fillColor=none;spacingLeft=4;spacingRight=4;overflow=hidden;rotatable=0;points=[[0,0.5],[1,0.5]];portConstraint=eastwest;fontSize=12;spacing=2;" vertex="1" parent="-R_R7R8B03H3mzK-gPOs-94">
                    <mxGeometry y="46" width="300" height="20" as="geometry"/>
                </mxCell>
                <mxCell id="55" value="- ks : KeyStore" style="text;strokeColor=none;fillColor=none;spacingLeft=4;spacingRight=4;overflow=hidden;rotatable=0;points=[[0,0.5],[1,0.5]];portConstraint=eastwest;fontSize=12;" vertex="1" parent="-R_R7R8B03H3mzK-gPOs-94">
                    <mxGeometry y="66" width="300" height="20" as="geometry"/>
                </mxCell>
                <mxCell id="56" value="- keys : Key[]" style="text;strokeColor=none;fillColor=none;spacingLeft=4;spacingRight=4;overflow=hidden;rotatable=0;points=[[0,0.5],[1,0.5]];portConstraint=eastwest;fontSize=12;" vertex="1" parent="-R_R7R8B03H3mzK-gPOs-94">
                    <mxGeometry y="86" width="300" height="20" as="geometry"/>
                </mxCell>
                <mxCell id="57" value="- mqtt : MqttRun" style="text;strokeColor=none;fillColor=none;spacingLeft=4;spacingRight=4;overflow=hidden;rotatable=0;points=[[0,0.5],[1,0.5]];portConstraint=eastwest;fontSize=12;" vertex="1" parent="-R_R7R8B03H3mzK-gPOs-94">
                    <mxGeometry y="106" width="300" height="20" as="geometry"/>
                </mxCell>
                <mxCell id="53" value="- client : MqttBlockingClient" style="text;strokeColor=none;fillColor=none;spacingLeft=4;spacingRight=4;overflow=hidden;rotatable=0;points=[[0,0.5],[1,0.5]];portConstraint=eastwest;fontSize=12;" vertex="1" parent="-R_R7R8B03H3mzK-gPOs-94">
                    <mxGeometry y="126" width="300" height="30" as="geometry"/>
                </mxCell>
                <mxCell id="72" value="" style="line;strokeWidth=1;html=1;perimeter=backbonePerimeter;points=[];outlineConnect=0;glass=0;labelBorderColor=none;" vertex="1" parent="-R_R7R8B03H3mzK-gPOs-94">
                    <mxGeometry y="156" width="300" height="10" as="geometry"/>
                </mxCell>
                <mxCell id="-R_R7R8B03H3mzK-gPOs-95" value="main(String[] args)" style="text;strokeColor=none;fillColor=none;spacingLeft=4;spacingRight=4;overflow=hidden;rotatable=0;points=[[0,0.5],[1,0.5]];portConstraint=eastwest;fontSize=12;" parent="-R_R7R8B03H3mzK-gPOs-94" vertex="1">
                    <mxGeometry y="166" width="300" height="30" as="geometry"/>
                </mxCell>
                <mxCell id="44" value="- menu() : void" style="text;strokeColor=none;fillColor=none;spacingLeft=4;spacingRight=4;overflow=hidden;rotatable=0;points=[[0,0.5],[1,0.5]];portConstraint=eastwest;fontSize=12;" vertex="1" parent="-R_R7R8B03H3mzK-gPOs-94">
                    <mxGeometry y="196" width="300" height="30" as="geometry"/>
                </mxCell>
                <mxCell id="45" value="- getPath() : String" style="text;strokeColor=none;fillColor=none;spacingLeft=4;spacingRight=4;overflow=hidden;rotatable=0;points=[[0,0.5],[1,0.5]];portConstraint=eastwest;fontSize=12;" vertex="1" parent="-R_R7R8B03H3mzK-gPOs-94">
                    <mxGeometry y="226" width="300" height="30" as="geometry"/>
                </mxCell>
                <mxCell id="46" value="- getKeystore() : KeyStore" style="text;strokeColor=none;fillColor=none;spacingLeft=4;spacingRight=4;overflow=hidden;rotatable=0;points=[[0,0.5],[1,0.5]];portConstraint=eastwest;fontSize=12;" vertex="1" parent="-R_R7R8B03H3mzK-gPOs-94">
                    <mxGeometry y="256" width="300" height="30" as="geometry"/>
                </mxCell>
                <mxCell id="48" value="- storeCertificate(alias:String, cert:Certificate) : void" style="text;strokeColor=none;fillColor=none;spacingLeft=4;spacingRight=4;overflow=hidden;rotatable=0;points=[[0,0.5],[1,0.5]];portConstraint=eastwest;fontSize=12;" vertex="1" parent="-R_R7R8B03H3mzK-gPOs-94">
                    <mxGeometry y="286" width="300" height="30" as="geometry"/>
                </mxCell>
                <mxCell id="47" value="- writeMessage() : void" style="text;strokeColor=none;fillColor=none;spacingLeft=4;spacingRight=4;overflow=hidden;rotatable=0;points=[[0,0.5],[1,0.5]];portConstraint=eastwest;fontSize=12;" vertex="1" parent="-R_R7R8B03H3mzK-gPOs-94">
                    <mxGeometry y="316" width="300" height="30" as="geometry"/>
                </mxCell>
                <mxCell id="v1lA2thCo2zAI3JGBGha-1" value="Sensor (Abstract)" style="swimlane;fontStyle=1;childLayout=stackLayout;horizontal=1;startSize=30;horizontalStack=0;resizeParent=1;resizeParentMax=0;resizeLast=0;collapsible=1;marginBottom=0;" parent="1" vertex="1">
                    <mxGeometry x="-128.75" y="440" width="227.5" height="210" as="geometry"/>
                </mxCell>
                <mxCell id="v1lA2thCo2zAI3JGBGha-2" value="-filePath:String" style="text;strokeColor=default;fillColor=none;align=left;verticalAlign=middle;spacingLeft=4;spacingRight=4;overflow=hidden;points=[[0,0.5],[1,0.5]];portConstraint=eastwest;rotatable=0;" parent="v1lA2thCo2zAI3JGBGha-1" vertex="1">
                    <mxGeometry y="30" width="227.5" height="30" as="geometry"/>
                </mxCell>
                <mxCell id="v1lA2thCo2zAI3JGBGha-102" value="+Sensor(String filePath)" style="text;strokeColor=none;fillColor=none;align=left;verticalAlign=middle;spacingLeft=4;spacingRight=4;overflow=hidden;points=[[0,0.5],[1,0.5]];portConstraint=eastwest;rotatable=0;whiteSpace=wrap;" parent="v1lA2thCo2zAI3JGBGha-1" vertex="1">
                    <mxGeometry y="60" width="227.5" height="30" as="geometry"/>
                </mxCell>
                <mxCell id="v1lA2thCo2zAI3JGBGha-4" value="+getSensorInfo()" style="text;strokeColor=none;fillColor=none;align=left;verticalAlign=middle;spacingLeft=4;spacingRight=4;overflow=hidden;points=[[0,0.5],[1,0.5]];portConstraint=eastwest;rotatable=0;whiteSpace=wrap;" parent="v1lA2thCo2zAI3JGBGha-1" vertex="1">
                    <mxGeometry y="90" width="227.5" height="30" as="geometry"/>
                </mxCell>
                <mxCell id="v1lA2thCo2zAI3JGBGha-48" value="+getOutput():String" style="text;strokeColor=none;fillColor=none;align=left;verticalAlign=middle;spacingLeft=4;spacingRight=4;overflow=hidden;points=[[0,0.5],[1,0.5]];portConstraint=eastwest;rotatable=0;whiteSpace=wrap;" parent="v1lA2thCo2zAI3JGBGha-1" vertex="1">
                    <mxGeometry y="120" width="227.5" height="30" as="geometry"/>
                </mxCell>
                <mxCell id="v1lA2thCo2zAI3JGBGha-47" value="+setOutput(output:String):void" style="text;strokeColor=none;fillColor=none;align=left;verticalAlign=middle;spacingLeft=4;spacingRight=4;overflow=hidden;points=[[0,0.5],[1,0.5]];portConstraint=eastwest;rotatable=0;whiteSpace=wrap;" parent="v1lA2thCo2zAI3JGBGha-1" vertex="1">
                    <mxGeometry y="150" width="227.5" height="30" as="geometry"/>
                </mxCell>
                <mxCell id="v1lA2thCo2zAI3JGBGha-103" value="+sensorLoop():void" style="text;strokeColor=none;fillColor=none;align=left;verticalAlign=middle;spacingLeft=4;spacingRight=4;overflow=hidden;points=[[0,0.5],[1,0.5]];portConstraint=eastwest;rotatable=0;whiteSpace=wrap;" parent="v1lA2thCo2zAI3JGBGha-1" vertex="1">
                    <mxGeometry y="180" width="227.5" height="30" as="geometry"/>
                </mxCell>
                <mxCell id="v1lA2thCo2zAI3JGBGha-14" value="" style="endArrow=open;endFill=1;endSize=12;html=1;rounded=0;exitX=0.684;exitY=0.006;exitDx=0;exitDy=0;entryX=0.746;entryY=1;entryDx=0;entryDy=0;entryPerimeter=0;exitPerimeter=0;" parent="1" source="v1lA2thCo2zAI3JGBGha-92" edge="1" target="v1lA2thCo2zAI3JGBGha-103">
                    <mxGeometry width="160" relative="1" as="geometry">
                        <mxPoint x="258" y="720" as="sourcePoint"/>
                        <mxPoint x="5" y="650" as="targetPoint"/>
                    </mxGeometry>
                </mxCell>
                <mxCell id="v1lA2thCo2zAI3JGBGha-15" value="" style="endArrow=open;endFill=1;endSize=12;html=1;rounded=0;entryX=0.277;entryY=-0.012;entryDx=0;entryDy=0;exitX=0.197;exitY=1;exitDx=0;exitDy=0;exitPerimeter=0;entryPerimeter=0;" parent="1" source="v1lA2thCo2zAI3JGBGha-103" target="v1lA2thCo2zAI3JGBGha-92" edge="1">
                    <mxGeometry width="160" relative="1" as="geometry">
                        <mxPoint x="295" y="660" as="sourcePoint"/>
                        <mxPoint x="519.9900000000002" y="729.9999999999995" as="targetPoint"/>
                    </mxGeometry>
                </mxCell>
                <mxCell id="25" style="edgeStyle=none;rounded=0;jumpSize=6;html=1;endArrow=none;endFill=0;strokeWidth=1;entryX=0.5;entryY=1;entryDx=0;entryDy=0;exitX=0.527;exitY=1;exitDx=0;exitDy=0;exitPerimeter=0;" edge="1" parent="1" source="v1lA2thCo2zAI3JGBGha-64" target="v1lA2thCo2zAI3JGBGha-73">
                    <mxGeometry relative="1" as="geometry">
                        <mxPoint x="320" y="360" as="targetPoint"/>
                        <mxPoint x="-300" y="320" as="sourcePoint"/>
                        <Array as="points">
                            <mxPoint x="-284" y="360"/>
                            <mxPoint x="340" y="360"/>
                        </Array>
                    </mxGeometry>
                </mxCell>
                <mxCell id="v1lA2thCo2zAI3JGBGha-58" value="BuzzerApp" style="swimlane;fontStyle=1;align=center;verticalAlign=top;childLayout=stackLayout;horizontal=1;startSize=26;horizontalStack=0;resizeParent=1;resizeParentMax=0;resizeLast=0;collapsible=1;marginBottom=0;strokeColor=default;fillColor=none;" parent="1" vertex="1">
                    <mxGeometry x="-380" y="166" width="180" height="130" as="geometry"/>
                </mxCell>
                <mxCell id="v1lA2thCo2zAI3JGBGha-61" value="+BuzzerApp()" style="text;strokeColor=none;fillColor=none;align=left;verticalAlign=top;spacingLeft=4;spacingRight=4;overflow=hidden;rotatable=0;points=[[0,0.5],[1,0.5]];portConstraint=eastwest;" parent="v1lA2thCo2zAI3JGBGha-58" vertex="1">
                    <mxGeometry y="26" width="180" height="26" as="geometry"/>
                </mxCell>
                <mxCell id="v1lA2thCo2zAI3JGBGha-62" value="+sensorLoop():void" style="text;strokeColor=none;fillColor=none;align=left;verticalAlign=top;spacingLeft=4;spacingRight=4;overflow=hidden;rotatable=0;points=[[0,0.5],[1,0.5]];portConstraint=eastwest;" parent="v1lA2thCo2zAI3JGBGha-58" vertex="1">
                    <mxGeometry y="52" width="180" height="26" as="geometry"/>
                </mxCell>
                <mxCell id="v1lA2thCo2zAI3JGBGha-63" value="+getOutput():String" style="text;strokeColor=none;fillColor=none;align=left;verticalAlign=top;spacingLeft=4;spacingRight=4;overflow=hidden;rotatable=0;points=[[0,0.5],[1,0.5]];portConstraint=eastwest;" parent="v1lA2thCo2zAI3JGBGha-58" vertex="1">
                    <mxGeometry y="78" width="180" height="26" as="geometry"/>
                </mxCell>
                <mxCell id="v1lA2thCo2zAI3JGBGha-64" value="+setOutput(output:String):void" style="text;strokeColor=none;fillColor=none;align=left;verticalAlign=top;spacingLeft=4;spacingRight=4;overflow=hidden;rotatable=0;points=[[0,0.5],[1,0.5]];portConstraint=eastwest;" parent="v1lA2thCo2zAI3JGBGha-58" vertex="1">
                    <mxGeometry y="104" width="180" height="26" as="geometry"/>
                </mxCell>
                <mxCell id="22" style="edgeStyle=none;rounded=0;jumpSize=6;html=1;entryX=0.5;entryY=0;entryDx=0;entryDy=0;endArrow=block;endFill=0;strokeWidth=1;exitX=0.5;exitY=1;exitDx=0;exitDy=0;" edge="1" parent="1" source="v1lA2thCo2zAI3JGBGha-65" target="v1lA2thCo2zAI3JGBGha-1">
                    <mxGeometry relative="1" as="geometry">
                        <mxPoint x="10" y="320" as="sourcePoint"/>
                    </mxGeometry>
                </mxCell>
                <mxCell id="24" value="Extends" style="edgeLabel;html=1;align=center;verticalAlign=middle;resizable=0;points=[];" vertex="1" connectable="0" parent="22">
                    <mxGeometry x="-0.5542" y="-1" relative="1" as="geometry">
                        <mxPoint as="offset"/>
                    </mxGeometry>
                </mxCell>
                <mxCell id="v1lA2thCo2zAI3JGBGha-65" value="HumidityApp" style="swimlane;fontStyle=1;align=center;verticalAlign=top;childLayout=stackLayout;horizontal=1;startSize=26;horizontalStack=0;resizeParent=1;resizeParentMax=0;resizeLast=0;collapsible=1;marginBottom=0;strokeColor=default;fillColor=none;" parent="1" vertex="1">
                    <mxGeometry x="-170" y="153" width="310" height="156" as="geometry"/>
                </mxCell>
                <mxCell id="v1lA2thCo2zAI3JGBGha-68" value="+HumidityApp()" style="text;strokeColor=none;fillColor=none;align=left;verticalAlign=top;spacingLeft=4;spacingRight=4;overflow=hidden;rotatable=0;points=[[0,0.5],[1,0.5]];portConstraint=eastwest;" parent="v1lA2thCo2zAI3JGBGha-65" vertex="1">
                    <mxGeometry y="26" width="310" height="26" as="geometry"/>
                </mxCell>
                <mxCell id="v1lA2thCo2zAI3JGBGha-69" value="+sensorLoop():void" style="text;strokeColor=none;fillColor=none;align=left;verticalAlign=top;spacingLeft=4;spacingRight=4;overflow=hidden;rotatable=0;points=[[0,0.5],[1,0.5]];portConstraint=eastwest;" parent="v1lA2thCo2zAI3JGBGha-65" vertex="1">
                    <mxGeometry y="52" width="310" height="26" as="geometry"/>
                </mxCell>
                <mxCell id="v1lA2thCo2zAI3JGBGha-70" value="+getOutput():String" style="text;strokeColor=none;fillColor=none;align=left;verticalAlign=top;spacingLeft=4;spacingRight=4;overflow=hidden;rotatable=0;points=[[0,0.5],[1,0.5]];portConstraint=eastwest;" parent="v1lA2thCo2zAI3JGBGha-65" vertex="1">
                    <mxGeometry y="78" width="310" height="26" as="geometry"/>
                </mxCell>
                <mxCell id="v1lA2thCo2zAI3JGBGha-71" value="+setOutput(output:String):void" style="text;strokeColor=none;fillColor=none;align=left;verticalAlign=top;spacingLeft=4;spacingRight=4;overflow=hidden;rotatable=0;points=[[0,0.5],[1,0.5]];portConstraint=eastwest;" parent="v1lA2thCo2zAI3JGBGha-65" vertex="1">
                    <mxGeometry y="104" width="310" height="26" as="geometry"/>
                </mxCell>
                <mxCell id="v1lA2thCo2zAI3JGBGha-72" value="-setTileInfo(humidity:double, temperature:double):void" style="text;strokeColor=none;fillColor=none;align=left;verticalAlign=top;spacingLeft=4;spacingRight=4;overflow=hidden;rotatable=0;points=[[0,0.5],[1,0.5]];portConstraint=eastwest;" parent="v1lA2thCo2zAI3JGBGha-65" vertex="1">
                    <mxGeometry y="130" width="310" height="26" as="geometry"/>
                </mxCell>
                <mxCell id="v1lA2thCo2zAI3JGBGha-73" value="MotionSensorApp" style="swimlane;fontStyle=1;align=center;verticalAlign=top;childLayout=stackLayout;horizontal=1;startSize=26;horizontalStack=0;resizeParent=1;resizeParentMax=0;resizeLast=0;collapsible=1;marginBottom=0;strokeColor=default;fillColor=none;" parent="1" vertex="1">
                    <mxGeometry x="215" y="166" width="250" height="130" as="geometry"/>
                </mxCell>
                <mxCell id="v1lA2thCo2zAI3JGBGha-76" value="+MotionSensorApp()" style="text;strokeColor=none;fillColor=none;align=left;verticalAlign=top;spacingLeft=4;spacingRight=4;overflow=hidden;rotatable=0;points=[[0,0.5],[1,0.5]];portConstraint=eastwest;" parent="v1lA2thCo2zAI3JGBGha-73" vertex="1">
                    <mxGeometry y="26" width="250" height="26" as="geometry"/>
                </mxCell>
                <mxCell id="v1lA2thCo2zAI3JGBGha-77" value="+sensorLoop():void" style="text;strokeColor=none;fillColor=none;align=left;verticalAlign=top;spacingLeft=4;spacingRight=4;overflow=hidden;rotatable=0;points=[[0,0.5],[1,0.5]];portConstraint=eastwest;" parent="v1lA2thCo2zAI3JGBGha-73" vertex="1">
                    <mxGeometry y="52" width="250" height="26" as="geometry"/>
                </mxCell>
                <mxCell id="v1lA2thCo2zAI3JGBGha-78" value="+getOutput():String" style="text;strokeColor=none;fillColor=none;align=left;verticalAlign=top;spacingLeft=4;spacingRight=4;overflow=hidden;rotatable=0;points=[[0,0.5],[1,0.5]];portConstraint=eastwest;" parent="v1lA2thCo2zAI3JGBGha-73" vertex="1">
                    <mxGeometry y="78" width="250" height="26" as="geometry"/>
                </mxCell>
                <mxCell id="v1lA2thCo2zAI3JGBGha-79" value="+setOutput(output:String):void" style="text;strokeColor=none;fillColor=none;align=left;verticalAlign=top;spacingLeft=4;spacingRight=4;overflow=hidden;rotatable=0;points=[[0,0.5],[1,0.5]];portConstraint=eastwest;" parent="v1lA2thCo2zAI3JGBGha-73" vertex="1">
                    <mxGeometry y="104" width="250" height="26" as="geometry"/>
                </mxCell>
                <mxCell id="v1lA2thCo2zAI3JGBGha-92" value="ProcessBuilderHandler" style="swimlane;fontStyle=1;childLayout=stackLayout;horizontal=1;startSize=30;horizontalStack=0;resizeParent=1;resizeParentMax=0;resizeLast=0;collapsible=1;marginBottom=0;" parent="1" vertex="1">
                    <mxGeometry x="-170" y="740" width="310" height="160" as="geometry"/>
                </mxCell>
                <mxCell id="v1lA2thCo2zAI3JGBGha-99" value="-processBuilder:ProcessBuilder" style="text;strokeColor=none;fillColor=default;align=left;verticalAlign=middle;spacingLeft=4;spacingRight=4;overflow=hidden;points=[[0,0.5],[1,0.5]];portConstraint=eastwest;rotatable=0;" parent="v1lA2thCo2zAI3JGBGha-92" vertex="1">
                    <mxGeometry y="30" width="310" height="30" as="geometry"/>
                </mxCell>
                <mxCell id="v1lA2thCo2zAI3JGBGha-101" value="-sensor:Sensor" style="text;strokeColor=none;fillColor=default;align=left;verticalAlign=middle;spacingLeft=4;spacingRight=4;overflow=hidden;points=[[0,0.5],[1,0.5]];portConstraint=eastwest;rotatable=0;" parent="v1lA2thCo2zAI3JGBGha-92" vertex="1">
                    <mxGeometry y="60" width="310" height="30" as="geometry"/>
                </mxCell>
                <mxCell id="v1lA2thCo2zAI3JGBGha-100" value="" style="line;strokeWidth=1;rotatable=0;dashed=0;labelPosition=right;align=left;verticalAlign=middle;spacingTop=0;spacingLeft=6;points=[];portConstraint=eastwest;fillColor=default;" parent="v1lA2thCo2zAI3JGBGha-92" vertex="1">
                    <mxGeometry y="90" width="310" height="10" as="geometry"/>
                </mxCell>
                <mxCell id="v1lA2thCo2zAI3JGBGha-95" value="+ProcessBuilderHandler(theApp:String, sensor: Sensor)" style="text;strokeColor=none;fillColor=none;align=left;verticalAlign=middle;spacingLeft=4;spacingRight=4;overflow=hidden;points=[[0,0.5],[1,0.5]];portConstraint=eastwest;rotatable=0;whiteSpace=wrap;" parent="v1lA2thCo2zAI3JGBGha-92" vertex="1">
                    <mxGeometry y="100" width="310" height="30" as="geometry"/>
                </mxCell>
                <mxCell id="v1lA2thCo2zAI3JGBGha-96" value="+startProcess:void" style="text;strokeColor=none;fillColor=none;align=left;verticalAlign=middle;spacingLeft=4;spacingRight=4;overflow=hidden;points=[[0,0.5],[1,0.5]];portConstraint=eastwest;rotatable=0;whiteSpace=wrap;labelBackgroundColor=default;" parent="v1lA2thCo2zAI3JGBGha-92" vertex="1">
                    <mxGeometry y="130" width="310" height="30" as="geometry"/>
                </mxCell>
                <mxCell id="v1lA2thCo2zAI3JGBGha-115" value="MQTTHandler" style="swimlane;fontStyle=1;childLayout=stackLayout;horizontal=1;startSize=26;fillColor=none;horizontalStack=0;resizeParent=1;resizeParentMax=0;resizeLast=0;collapsible=1;marginBottom=0;labelBackgroundColor=default;strokeColor=default;" parent="1" vertex="1">
                    <mxGeometry x="500" y="80" width="370" height="208" as="geometry"/>
                </mxCell>
                <mxCell id="v1lA2thCo2zAI3JGBGha-116" value="+run() :void" style="text;strokeColor=none;fillColor=none;align=left;verticalAlign=top;spacingLeft=4;spacingRight=4;overflow=hidden;rotatable=0;points=[[0,0.5],[1,0.5]];portConstraint=eastwest;labelBackgroundColor=default;" parent="v1lA2thCo2zAI3JGBGha-115" vertex="1">
                    <mxGeometry y="26" width="370" height="26" as="geometry"/>
                </mxCell>
                <mxCell id="v1lA2thCo2zAI3JGBGha-117" value="+getUsername():String" style="text;strokeColor=none;fillColor=none;align=left;verticalAlign=top;spacingLeft=4;spacingRight=4;overflow=hidden;rotatable=0;points=[[0,0.5],[1,0.5]];portConstraint=eastwest;labelBackgroundColor=default;" parent="v1lA2thCo2zAI3JGBGha-115" vertex="1">
                    <mxGeometry y="52" width="370" height="26" as="geometry"/>
                </mxCell>
                <mxCell id="v1lA2thCo2zAI3JGBGha-118" value="+getPassword():String" style="text;strokeColor=none;fillColor=none;align=left;verticalAlign=top;spacingLeft=4;spacingRight=4;overflow=hidden;rotatable=0;points=[[0,0.5],[1,0.5]];portConstraint=eastwest;labelBackgroundColor=default;" parent="v1lA2thCo2zAI3JGBGha-115" vertex="1">
                    <mxGeometry y="78" width="370" height="26" as="geometry"/>
                </mxCell>
                <mxCell id="v1lA2thCo2zAI3JGBGha-121" value="+createClient(host:String) : Mqtt5BlockingClient" style="text;strokeColor=none;fillColor=none;align=left;verticalAlign=top;spacingLeft=4;spacingRight=4;overflow=hidden;rotatable=0;points=[[0,0.5],[1,0.5]];portConstraint=eastwest;labelBackgroundColor=default;" parent="v1lA2thCo2zAI3JGBGha-115" vertex="1">
                    <mxGeometry y="104" width="370" height="26" as="geometry"/>
                </mxCell>
                <mxCell id="v1lA2thCo2zAI3JGBGha-120" value="+connectClient(client: Mqtt...,username: String,password:String)" style="text;strokeColor=none;fillColor=none;align=left;verticalAlign=top;spacingLeft=4;spacingRight=4;overflow=hidden;rotatable=0;points=[[0,0.5],[1,0.5]];portConstraint=eastwest;labelBackgroundColor=default;" parent="v1lA2thCo2zAI3JGBGha-115" vertex="1">
                    <mxGeometry y="130" width="370" height="26" as="geometry"/>
                </mxCell>
                <mxCell id="v1lA2thCo2zAI3JGBGha-119" value="+subscribeClient(client: Mqtt5BlockingClient, topic:String)" style="text;strokeColor=none;fillColor=none;align=left;verticalAlign=top;spacingLeft=4;spacingRight=4;overflow=hidden;rotatable=0;points=[[0,0.5],[1,0.5]];portConstraint=eastwest;labelBackgroundColor=default;" parent="v1lA2thCo2zAI3JGBGha-115" vertex="1">
                    <mxGeometry y="156" width="370" height="26" as="geometry"/>
                </mxCell>
                <mxCell id="v1lA2thCo2zAI3JGBGha-122" value="+messageReceived(client:Mqtt5BlockingClient)" style="text;strokeColor=none;fillColor=none;align=left;verticalAlign=top;spacingLeft=4;spacingRight=4;overflow=hidden;rotatable=0;points=[[0,0.5],[1,0.5]];portConstraint=eastwest;labelBackgroundColor=default;" parent="v1lA2thCo2zAI3JGBGha-115" vertex="1">
                    <mxGeometry y="182" width="370" height="26" as="geometry"/>
                </mxCell>
                <mxCell id="18" style="edgeStyle=none;rounded=0;html=1;entryX=0.5;entryY=0;entryDx=0;entryDy=0;exitX=0.5;exitY=1;exitDx=0;exitDy=0;" edge="1" parent="1" source="10" target="v1lA2thCo2zAI3JGBGha-73">
                    <mxGeometry relative="1" as="geometry">
                        <mxPoint x="330" y="30" as="sourcePoint"/>
                        <Array as="points">
                            <mxPoint x="444" y="120"/>
                            <mxPoint x="340" y="120"/>
                        </Array>
                    </mxGeometry>
                </mxCell>
                <mxCell id="19" style="edgeStyle=none;rounded=0;html=1;entryX=0.5;entryY=0;entryDx=0;entryDy=0;exitX=0.5;exitY=1;exitDx=0;exitDy=0;" edge="1" parent="1" source="10">
                    <mxGeometry relative="1" as="geometry">
                        <mxPoint x="360" y="30" as="sourcePoint"/>
                        <mxPoint x="687" y="80" as="targetPoint"/>
                        <Array as="points">
                            <mxPoint x="444" y="50"/>
                            <mxPoint x="687" y="50"/>
                        </Array>
                    </mxGeometry>
                </mxCell>
                <mxCell id="10" value="LogicHandler" style="swimlane;fontStyle=0;childLayout=stackLayout;horizontal=1;startSize=26;fillColor=none;horizontalStack=0;resizeParent=1;resizeParentMax=0;resizeLast=0;collapsible=1;marginBottom=0;" vertex="1" parent="1">
                    <mxGeometry x="197.5" y="-320" width="492.5" height="338" as="geometry"/>
                </mxCell>
                <mxCell id="50" value="- humiditySensor : HumidityApp" style="text;strokeColor=none;fillColor=none;align=left;verticalAlign=top;spacingLeft=4;spacingRight=4;overflow=hidden;rotatable=0;points=[[0,0.5],[1,0.5]];portConstraint=eastwest;glass=0;strokeWidth=1;" vertex="1" parent="10">
                    <mxGeometry y="26" width="492.5" height="26" as="geometry"/>
                </mxCell>
                <mxCell id="49" value="- buzzerSensor: BuzzerApp" style="text;strokeColor=none;fillColor=none;align=left;verticalAlign=top;spacingLeft=4;spacingRight=4;overflow=hidden;rotatable=0;points=[[0,0.5],[1,0.5]];portConstraint=eastwest;glass=0;strokeWidth=1;perimeterSpacing=1;" vertex="1" parent="10">
                    <mxGeometry y="52" width="492.5" height="26" as="geometry"/>
                </mxCell>
                <mxCell id="11" value="+loadKeystore(path:String, pass:Char[]) : Keystore" style="text;strokeColor=none;fillColor=none;align=left;verticalAlign=top;spacingLeft=4;spacingRight=4;overflow=hidden;rotatable=0;points=[[0,0.5],[1,0.5]];portConstraint=eastwest;" vertex="1" parent="10">
                    <mxGeometry y="78" width="492.5" height="26" as="geometry"/>
                </mxCell>
                <mxCell id="12" value="+extractKeys(ks:KeyStore, pass:char[]) : Key[]" style="text;strokeColor=none;fillColor=none;align=left;verticalAlign=top;spacingLeft=4;spacingRight=4;overflow=hidden;rotatable=0;points=[[0,0.5],[1,0.5]];portConstraint=eastwest;" vertex="1" parent="10">
                    <mxGeometry y="104" width="492.5" height="26" as="geometry"/>
                </mxCell>
                <mxCell id="14" value="+validatePath(path:String) : boolean" style="text;strokeColor=none;fillColor=none;align=left;verticalAlign=top;spacingLeft=4;spacingRight=4;overflow=hidden;rotatable=0;points=[[0,0.5],[1,0.5]];portConstraint=eastwest;" vertex="1" parent="10">
                    <mxGeometry y="130" width="492.5" height="26" as="geometry"/>
                </mxCell>
                <mxCell id="15" value="+validatePass(pass:char[]) : boolean" style="text;strokeColor=none;fillColor=none;align=left;verticalAlign=top;spacingLeft=4;spacingRight=4;overflow=hidden;rotatable=0;points=[[0,0.5],[1,0.5]];portConstraint=eastwest;" vertex="1" parent="10">
                    <mxGeometry y="156" width="492.5" height="26" as="geometry"/>
                </mxCell>
                <mxCell id="26" value="+generatesSignature(algorithm:String, privateKey: PrivateKey, message:String) : byte[]" style="text;strokeColor=none;fillColor=none;align=left;verticalAlign=top;spacingLeft=4;spacingRight=4;overflow=hidden;rotatable=0;points=[[0,0.5],[1,0.5]];portConstraint=eastwest;" vertex="1" parent="10">
                    <mxGeometry y="182" width="492.5" height="26" as="geometry"/>
                </mxCell>
                <mxCell id="27" value="+verifySignature(signature:byte[], publicKey:PublicKey, message:String) : boolean" style="text;strokeColor=none;fillColor=none;align=left;verticalAlign=top;spacingLeft=4;spacingRight=4;overflow=hidden;rotatable=0;points=[[0,0.5],[1,0.5]];portConstraint=eastwest;" vertex="1" parent="10">
                    <mxGeometry y="208" width="492.5" height="26" as="geometry"/>
                </mxCell>
                <mxCell id="40" value="+startHumiditySensor() : void" style="text;strokeColor=none;fillColor=none;align=left;verticalAlign=top;spacingLeft=4;spacingRight=4;overflow=hidden;rotatable=0;points=[[0,0.5],[1,0.5]];portConstraint=eastwest;" vertex="1" parent="10">
                    <mxGeometry y="234" width="492.5" height="26" as="geometry"/>
                </mxCell>
                <mxCell id="41" value="+stopHumiditySensor() : void" style="text;strokeColor=none;fillColor=none;align=left;verticalAlign=top;spacingLeft=4;spacingRight=4;overflow=hidden;rotatable=0;points=[[0,0.5],[1,0.5]];portConstraint=eastwest;" vertex="1" parent="10">
                    <mxGeometry y="260" width="492.5" height="26" as="geometry"/>
                </mxCell>
                <mxCell id="42" value="+startBuzzerSensor() : void" style="text;strokeColor=none;fillColor=none;align=left;verticalAlign=top;spacingLeft=4;spacingRight=4;overflow=hidden;rotatable=0;points=[[0,0.5],[1,0.5]];portConstraint=eastwest;" vertex="1" parent="10">
                    <mxGeometry y="286" width="492.5" height="26" as="geometry"/>
                </mxCell>
                <mxCell id="43" value="+stopBuzzerSensor() : void" style="text;strokeColor=none;fillColor=none;align=left;verticalAlign=top;spacingLeft=4;spacingRight=4;overflow=hidden;rotatable=0;points=[[0,0.5],[1,0.5]];portConstraint=eastwest;" vertex="1" parent="10">
                    <mxGeometry y="312" width="492.5" height="26" as="geometry"/>
                </mxCell>
                <mxCell id="17" style="edgeStyle=none;html=1;entryX=0.5;entryY=0;entryDx=0;entryDy=0;rounded=0;exitX=1;exitY=0.5;exitDx=0;exitDy=0;" edge="1" parent="1" source="27" target="-R_R7R8B03H3mzK-gPOs-82">
                    <mxGeometry relative="1" as="geometry">
                        <mxPoint x="1150" y="-49" as="targetPoint"/>
                        <mxPoint x="482.5" y="-49" as="sourcePoint"/>
                        <Array as="points">
                            <mxPoint x="1140" y="-99"/>
                        </Array>
                    </mxGeometry>
                </mxCell>
                <mxCell id="51" value="" style="line;strokeWidth=1;html=1;perimeter=backbonePerimeter;points=[];outlineConnect=0;glass=0;labelBorderColor=none;" vertex="1" parent="1">
                    <mxGeometry x="196" y="-244" width="494" height="10" as="geometry"/>
                </mxCell>
                <mxCell id="73" style="edgeStyle=none;rounded=0;jumpSize=6;html=1;entryX=0.5;entryY=0;entryDx=0;entryDy=0;endArrow=open;endFill=0;strokeWidth=1;" edge="1" parent="1" source="26" target="v1lA2thCo2zAI3JGBGha-65">
                    <mxGeometry relative="1" as="geometry">
                        <Array as="points">
                            <mxPoint x="-15" y="-125"/>
                        </Array>
                    </mxGeometry>
                </mxCell>
                <mxCell id="74" style="edgeStyle=none;rounded=0;jumpSize=6;html=1;entryX=0.5;entryY=0;entryDx=0;entryDy=0;endArrow=open;endFill=0;strokeWidth=1;" edge="1" parent="1" source="26" target="v1lA2thCo2zAI3JGBGha-58">
                    <mxGeometry relative="1" as="geometry">
                        <Array as="points">
                            <mxPoint x="-290" y="-125"/>
                        </Array>
                    </mxGeometry>
                </mxCell>
            </root>
        </mxGraphModel>
    </diagram>
</mxfile>